<?xml version="1.0" standalone="no"?>
<!DOCTYPE svg PUBLIC "-//W3C//DTD SVG 20010904//EN"
 "http://www.w3.org/TR/2001/REC-SVG-20010904/DTD/svg10.dtd">
<svg version="1.0" xmlns="http://www.w3.org/2000/svg"
 width="100%" height="100%" viewBox="650 400 1750 700"
 preserveAspectRatio="xMidYMid meet">

<g transform="translate(0.000000,1504.000000) scale(0.100000,-0.100000)"
fill="#000000" stroke="none">
<path d="M8331 8474 c-63 -72 -85 -126 -89 -221 -4 -71 -1 -89 22 -138 14 -31
38 -71 52 -88 l27 -32 -7 -350 c-4 -192 -10 -370 -14 -395 l-7 -45 -44 85
c-59 117 -157 261 -237 348 -59 65 -68 80 -81 140 -9 37 -26 87 -38 112 -51
102 -170 172 -295 174 l-65 1 -3 -63 c-8 -177 116 -324 294 -347 62 -9 82 -24
167 -132 127 -159 216 -336 266 -526 27 -102 58 -303 49 -313 -3 -2 -24 24
-48 58 -57 82 -178 208 -266 278 -39 31 -145 105 -235 165 -90 59 -189 129
-219 154 -30 25 -63 53 -73 61 -42 34 -138 164 -172 232 -49 101 -65 167 -65
283 -1 114 1 114 -72 -9 -191 -325 -289 -680 -274 -993 25 -533 321 -996 781
-1222 220 -109 412 -154 630 -149 l130 3 35 105 c42 125 112 266 184 370 105
153 367 390 432 390 176 1 331 167 322 346 l-3 59 -76 0 c-149 -1 -268 -89
-310 -229 -12 -39 -25 -81 -29 -92 -5 -12 -51 -56 -102 -97 -159 -128 -291
-280 -398 -457 l-45 -75 -3 95 c-10 327 131 659 390 920 185 186 429 316 662
350 94 14 219 5 237 -16 8 -10 12 -62 11 -167 -1 -336 -103 -623 -314 -881
-165 -200 -382 -348 -636 -433 -59 -19 -115 -42 -124 -51 -38 -33 -6 -102 46
-102 35 0 218 65 316 113 417 203 717 593 815 1062 38 181 28 530 -15 567 -49
40 -324 49 -447 15 -29 -9 -53 -12 -53 -8 0 4 21 32 47 62 153 179 220 309
243 476 33 245 -88 429 -313 474 -67 14 -163 2 -249 -31 -198 -74 -472 -353
-589 -598 -19 -39 -38 -71 -43 -71 -5 -1 -7 76 -4 173 l4 173 38 58 c52 78 68
134 63 220 -3 49 -11 85 -30 120 -33 65 -94 135 -117 135 -10 0 -36 -21 -59
-46z m1034 -277 c118 -61 167 -198 130 -362 -43 -194 -191 -381 -535 -675
-171 -147 -261 -237 -338 -341 -32 -41 -67 -89 -79 -105 l-22 -29 10 40 c34
134 128 384 198 524 93 183 180 322 308 488 60 78 73 103 54 103 -16 0 -226
-225 -290 -310 -124 -166 -235 -371 -310 -570 -29 -77 -42 -100 -47 -86 -8 22
3 314 16 407 12 81 59 227 105 325 135 283 371 528 573 595 68 23 181 21 227
-4z m-2151 -651 c91 -162 206 -272 471 -451 212 -144 264 -184 366 -285 152
-150 234 -308 264 -510 16 -105 21 -560 7 -560 -27 0 -225 162 -365 299 -261
254 -466 553 -630 916 l-27 60 5 -45 c15 -122 148 -439 259 -618 117 -189 277
-377 443 -523 59 -52 123 -109 142 -127 l36 -32 -45 6 c-473 67 -880 404
-1036 856 -68 197 -91 444 -60 647 21 140 110 431 131 431 2 0 19 -29 39 -64z"/>
<path d="M15420 7677 c-76 -17 -156 -63 -196 -112 -61 -75 -114 -220 -114
-315 0 -25 -3 -62 -6 -82 l-7 -38 -93 0 -94 0 0 -40 0 -40 95 0 95 0 0 -427
c0 -387 -2 -431 -18 -463 -20 -41 -49 -57 -123 -68 -38 -5 -54 -12 -54 -22 0
-13 42 -15 310 -15 269 0 310 2 310 15 0 11 -17 17 -62 22 -80 9 -112 25 -137
68 -20 34 -21 50 -21 460 l0 425 145 5 145 5 0 35 0 35 -149 3 -148 3 4 187
c3 177 5 189 28 232 31 55 61 72 120 66 37 -3 50 -11 80 -45 106 -125 117
-134 157 -128 52 8 83 46 83 99 0 35 -6 47 -38 77 -21 20 -56 42 -78 49 -58
19 -172 23 -234 9z"/>
<path d="M17318 7685 c-2 -3 -85 -27 -184 -54 -146 -40 -179 -52 -179 -66 0
-15 10 -18 68 -19 86 -1 102 -18 112 -109 3 -34 5 -330 3 -657 -2 -483 -6
-600 -17 -622 -16 -31 -62 -56 -124 -66 -27 -5 -42 -13 -42 -22 0 -13 40 -15
279 -15 215 0 280 3 283 12 5 15 1 16 -80 33 -105 21 -97 -44 -97 827 0 413
-4 754 -9 757 -4 3 -10 3 -13 1z"/>
<path d="M10962 7660 c-238 -43 -457 -202 -567 -411 -102 -195 -121 -481 -48
-714 74 -235 263 -416 509 -487 69 -20 100 -23 244 -22 150 0 173 3 253 27
100 31 148 53 228 108 52 35 169 146 169 160 0 3 -9 14 -20 24 -19 17 -21 15
-92 -42 -88 -70 -209 -135 -298 -159 -85 -22 -243 -23 -329 0 -291 75 -444
345 -428 755 9 238 69 400 194 526 106 105 213 147 378 147 226 0 405 -133
485 -362 23 -67 29 -75 54 -78 l28 -4 -6 134 c-20 453 -16 408 -42 408 -16 0
-28 -9 -38 -29 -8 -15 -29 -34 -46 -41 -34 -14 -38 -14 -220 36 -107 28 -313
41 -408 24z"/>
<path d="M18260 7616 c0 -21 6 -24 57 -30 31 -4 75 -15 99 -25 71 -32 69 -13
69 -721 0 -563 -2 -629 -17 -662 -21 -46 -61 -67 -143 -75 -60 -5 -65 -8 -65
-30 l0 -24 478 3 c452 4 481 5 555 26 190 53 310 171 337 334 30 178 -56 336
-225 414 -38 17 -86 35 -105 39 -63 13 -65 21 -9 39 204 67 289 195 259 389
-19 125 -87 215 -204 270 -133 63 -263 77 -726 77 l-360 0 0 -24z m820 -91
c151 -46 230 -151 230 -306 0 -84 -31 -159 -86 -208 -72 -63 -113 -74 -317
-79 l-178 -4 3 295 c2 242 6 297 18 312 13 16 28 17 145 12 77 -3 152 -12 185
-22z m8 -720 c174 -42 259 -137 269 -299 7 -108 -12 -176 -68 -240 -78 -89
-177 -120 -376 -121 -193 0 -177 -32 -181 367 l-3 321 148 -6 c81 -4 176 -13
211 -22z"/>
<path d="M12239 7136 c-144 -41 -249 -147 -249 -251 0 -32 35 -81 69 -94 40
-17 76 -7 113 30 30 29 30 31 23 105 -8 89 3 112 68 146 84 43 200 23 249 -43
33 -43 52 -255 26 -277 -7 -6 -80 -38 -163 -72 -182 -75 -256 -115 -324 -176
-78 -71 -96 -110 -96 -220 0 -83 2 -94 30 -140 19 -30 49 -60 79 -79 44 -27
58 -30 130 -30 71 0 90 4 150 33 38 18 97 52 132 77 34 25 65 45 67 45 3 0 10
-21 16 -47 8 -28 25 -59 46 -80 30 -30 38 -33 92 -33 68 0 120 22 181 75 32
28 42 44 42 67 0 16 -3 28 -8 26 -74 -32 -100 -38 -125 -29 -15 6 -32 22 -37
36 -6 15 -10 155 -10 328 0 391 -10 453 -85 530 -61 63 -114 81 -250 84 -77 1
-137 -3 -166 -11z m306 -652 c0 -233 -1 -235 -92 -280 -41 -20 -77 -29 -124
-32 -65 -4 -68 -3 -106 32 -44 39 -63 88 -63 160 0 117 74 195 269 282 53 24
101 42 106 40 6 -2 10 -78 10 -202z"/>
<path d="M13135 7085 c-186 -69 -211 -89 -112 -92 67 -2 83 -12 97 -62 13 -48
13 -704 0 -752 -12 -44 -42 -65 -110 -81 -38 -9 -50 -16 -50 -30 0 -17 16 -18
285 -18 271 0 285 1 285 19 0 15 -10 19 -55 24 -74 7 -121 38 -135 85 -6 22
-10 166 -10 345 0 350 -1 347 79 427 62 62 89 65 154 14 59 -46 111 -54 149
-25 55 43 46 154 -15 192 -25 16 -45 19 -94 17 -78 -5 -123 -34 -208 -136
l-60 -72 -3 105 c-2 75 -6 105 -15 104 -7 0 -88 -29 -182 -64z"/>
<path d="M14168 7126 c-151 -54 -255 -171 -310 -346 -19 -63 -23 -96 -23 -215
0 -169 23 -260 89 -354 85 -121 176 -172 322 -179 166 -8 269 30 379 142 64
65 130 167 150 234 13 44 -22 22 -98 -61 -83 -92 -141 -129 -230 -147 -200
-41 -368 88 -422 324 -8 33 -15 90 -17 126 l-3 65 368 3 c202 1 367 6 367 10
0 26 -43 179 -61 216 -33 72 -93 132 -167 168 -60 30 -76 33 -172 36 -91 2
-114 -1 -172 -22z m195 -77 c63 -33 107 -107 122 -212 l7 -47 -242 0 -243 0 6
39 c7 57 49 141 88 179 18 18 54 39 79 47 49 16 146 13 183 -6z"/>
<path d="M20220 7136 c-99 -28 -175 -82 -214 -150 -34 -58 -40 -97 -22 -139
29 -72 115 -85 171 -27 27 28 28 32 21 100 -8 87 5 115 65 149 33 19 57 25
106 24 134 -1 183 -73 183 -268 l0 -73 -77 -32 c-302 -125 -351 -150 -435
-228 -103 -95 -118 -267 -33 -378 37 -48 117 -84 187 -84 80 0 155 29 261 100
49 34 91 60 92 58 1 -2 10 -26 19 -54 24 -75 53 -97 130 -102 50 -3 71 0 105
17 68 35 121 89 121 122 0 32 -6 35 -35 15 -55 -37 -116 -26 -134 25 -7 21
-11 138 -11 339 0 385 -9 438 -88 518 -61 60 -111 76 -247 79 -76 1 -137 -3
-165 -11z m308 -658 c-3 -168 -5 -198 -21 -222 -27 -40 -118 -79 -198 -84 -60
-4 -68 -2 -98 24 -97 81 -95 231 4 329 65 66 285 176 308 155 5 -4 7 -95 5
-202z"/>
<path d="M22390 7134 c-178 -48 -299 -227 -211 -314 40 -40 76 -48 120 -24 51
28 62 55 55 142 l-7 72 36 34 c44 41 114 60 181 47 106 -20 138 -76 134 -238
l-3 -107 -115 -46 c-376 -152 -470 -235 -470 -413 0 -118 47 -196 141 -237
106 -45 252 -8 388 100 28 22 55 40 60 40 5 0 12 -15 16 -32 12 -56 37 -98 66
-113 39 -21 126 -18 174 4 54 25 125 98 125 128 0 28 3 28 -55 2 -28 -12 -56
-18 -71 -15 -50 13 -52 25 -57 396 -5 371 -8 394 -59 470 -57 86 -143 120
-297 119 -53 0 -121 -7 -151 -15z m310 -644 c0 -136 -4 -208 -12 -226 -9 -19
-34 -37 -82 -60 -165 -79 -285 -17 -286 149 0 95 42 165 135 225 38 24 221
110 238 111 4 1 7 -89 7 -199z"/>
<path d="M15700 7115 c0 -8 12 -17 28 -21 60 -13 77 -21 96 -48 20 -26 21 -43
26 -419 l5 -392 27 -50 c55 -105 137 -154 255 -155 109 0 169 26 263 116 42
41 80 74 84 74 3 0 6 -43 6 -95 0 -99 3 -105 43 -83 12 7 83 31 157 54 132 41
168 65 110 72 -50 6 -90 24 -103 45 -9 16 -13 139 -17 467 l-5 445 -187 3
c-179 2 -188 2 -188 -17 0 -14 10 -20 43 -25 72 -11 103 -25 118 -54 11 -21
15 -97 17 -342 2 -173 0 -334 -3 -357 -8 -57 -42 -95 -117 -132 -48 -25 -74
-31 -122 -31 -71 0 -109 19 -152 76 l-29 37 -3 424 -3 423 -174 0 c-148 0
-175 -2 -175 -15z"/>
<path d="M21060 7000 c0 -71 0 -133 0 -137 -1 -5 8 -9 19 -11 16 -3 20 5 26
40 12 71 40 125 77 145 28 15 64 18 236 21 134 3 202 0 202 -7 0 -9 -85 -140
-468 -721 -86 -129 -156 -244 -156 -255 -1 -20 6 -20 447 -23 353 -2 448 0
452 10 8 23 34 301 29 310 -3 4 -13 8 -23 8 -14 0 -21 -13 -31 -58 -18 -86
-50 -144 -91 -164 -19 -10 -66 -22 -104 -28 -71 -10 -407 -14 -417 -5 -2 3
139 221 314 484 175 263 318 488 318 500 l0 21 -415 0 -415 0 0 -130z"/>
<path d="M14905 5511 c-52 -31 -68 -58 -72 -114 -9 -119 98 -188 212 -138 45
20 47 23 33 38 -15 15 -19 15 -51 -1 -46 -21 -90 -12 -122 26 -43 51 -31 124
25 153 37 19 63 19 102 -1 27 -14 32 -14 46 -1 13 14 11 18 -19 36 -43 27
-113 28 -154 2z"/>
<path d="M15192 5511 c-71 -45 -93 -136 -49 -202 58 -87 181 -91 250 -10 22
27 27 42 27 87 0 50 -4 59 -39 96 -35 38 -43 42 -97 45 -47 3 -66 0 -92 -16z
m128 -36 c36 -19 50 -43 50 -89 0 -49 -7 -63 -47 -87 -67 -41 -153 7 -153 85
1 83 77 129 150 91z"/>
<path d="M15496 5507 c-52 -52 -25 -110 62 -138 47 -15 62 -27 62 -50 0 -38
-83 -44 -126 -9 -17 15 -34 5 -34 -20 0 -21 64 -50 113 -50 43 0 95 33 103 66
11 43 -16 76 -82 100 -69 25 -88 48 -59 70 19 15 48 14 101 -1 15 -5 23 -1 28
11 10 27 -9 38 -78 42 -59 4 -67 2 -90 -21z"/>
<path d="M15740 5386 c0 -138 1 -146 20 -146 18 0 20 8 22 103 l3 102 45 -85
c25 -47 52 -86 60 -88 11 -2 28 23 55 78 21 44 42 80 47 80 4 0 9 -42 10 -92
3 -79 6 -93 21 -96 16 -3 17 9 17 142 l0 146 -28 0 c-25 0 -32 -9 -72 -90 -24
-49 -47 -90 -50 -90 -3 0 -25 39 -50 88 -38 74 -49 87 -72 90 l-28 3 0 -145z"/>
<path d="M16122 5388 l3 -143 103 -3 c97 -3 102 -2 102 18 0 18 -6 20 -81 20
l-80 0 3 43 3 42 68 3 c59 3 67 5 67 22 0 18 -7 20 -70 20 l-70 0 0 40 0 40
81 0 c71 0 80 2 77 18 -3 15 -17 17 -106 20 l-103 3 3 -143z"/>
<path d="M16360 5510 c0 -17 7 -20 45 -20 l45 0 0 -126 c0 -124 0 -125 23
-122 21 3 22 7 25 126 l3 122 44 0 c38 0 45 3 45 20 0 19 -7 20 -115 20 -108
0 -115 -1 -115 -20z"/>
<path d="M16634 5517 c-2 -7 -3 -71 -2 -143 3 -125 4 -129 26 -132 22 -3 22
-3 22 142 0 140 -1 146 -20 146 -11 0 -23 -6 -26 -13z"/>
<path d="M16825 5520 c-31 -12 -74 -63 -84 -98 -28 -98 68 -198 172 -178 48 9
86 40 70 57 -10 10 -18 10 -35 1 -78 -38 -135 -12 -162 71 -9 29 20 84 53 101
38 20 64 20 102 1 32 -17 49 -13 49 11 0 32 -113 56 -165 34z"/>
<path d="M17176 5509 c-18 -14 -26 -30 -26 -52 0 -46 12 -59 77 -83 61 -23 80
-41 70 -68 -9 -22 -80 -21 -118 1 -26 16 -31 16 -39 3 -16 -24 -12 -30 33 -50
72 -33 146 -20 172 31 13 25 13 33 2 61 -11 27 -24 37 -68 52 -62 22 -79 33
-79 52 0 26 39 37 88 24 36 -9 47 -8 53 2 13 20 11 24 -16 36 -43 20 -119 15
-149 -9z"/>
<path d="M17380 5510 c0 -17 7 -20 45 -20 l44 0 3 -122 c3 -115 4 -123 23
-123 19 0 20 8 23 123 l3 122 44 0 c38 0 45 3 45 20 0 19 -7 20 -115 20 -108
0 -115 -1 -115 -20z"/>
<path d="M17700 5508 c-38 -26 -70 -81 -70 -118 0 -14 9 -44 20 -68 15 -33 29
-47 62 -62 53 -24 85 -25 138 -4 105 42 120 178 28 245 -53 38 -128 41 -178 7z
m156 -49 c49 -46 40 -123 -18 -159 -45 -28 -94 -21 -130 20 -41 45 -38 92 7
137 32 32 40 35 76 30 23 -3 52 -15 65 -28z"/>
<path d="M17992 5388 c3 -135 4 -143 23 -143 16 0 21 8 23 43 l3 42 44 0 c34
0 45 -4 50 -19 10 -33 46 -71 66 -71 25 0 24 10 -7 55 l-25 38 25 26 c20 21
26 37 26 72 0 49 -4 58 -40 82 -18 13 -46 17 -107 17 l-84 0 3 -142z m166 86
c25 -17 29 -51 8 -79 -10 -14 -27 -19 -67 -20 l-54 0 -3 44 c-2 24 -1 50 2 57
7 19 86 18 114 -2z"/>
<path d="M18292 5388 l3 -143 103 -3 c96 -3 102 -2 102 17 0 18 -8 20 -77 23
l-78 3 0 40 0 40 68 3 c59 3 67 5 67 22 0 18 -7 20 -70 20 l-70 0 0 40 0 40
80 0 c73 0 80 2 80 20 0 19 -7 20 -105 20 l-106 0 3 -142z"/>
</g>
</svg>